<?xml version="1.0" encoding="utf-8"?>
<!-- Generator: Adobe Illustrator 19.0.0, SVG Export Plug-In . SVG Version: 6.00 Build 0)  -->
<svg version="1.1" id="Layer_1" xmlns="http://www.w3.org/2000/svg" xmlns:xlink="http://www.w3.org/1999/xlink" x="0px" y="0px"
	 viewBox="0 0 80.2 80.2" style="enable-background:new 0 0 80.2 80.2;" xml:space="preserve">
<style type="text/css">
	.st0{fill:url(#XMLID_332_);}
	.st1{fill-rule:evenodd;clip-rule:evenodd;fill:#FFFFFF;}
</style>
<g id="XMLID_1865_">
	
		<linearGradient id="XMLID_332_" gradientUnits="userSpaceOnUse" x1="-537.9074" y1="-377.2765" x2="-466.4287" y2="-320.6655" gradientTransform="matrix(-1 0 0 -1 -463.6284 -310.1058)">
		<stop  offset="0" style="stop-color:#FEC054"/>
		<stop  offset="0.3273" style="stop-color:#EE2540"/>
		<stop  offset="0.6485" style="stop-color:#AC3D96"/>
		<stop  offset="1" style="stop-color:#5755A5"/>
	</linearGradient>
	<path id="XMLID_330_" class="st0" d="M0,40.1c0-22.2,18-40.2,40.2-40.2c22.2,0,40.2,18,40.2,40.2c0,22.2-18,40.2-40.2,40.2
		C17.9,80.3,0,62.3,0,40.1z"/>
	<g id="XMLID_1866_">
		<path id="XMLID_1867_" class="st1" d="M54.2,40.1c0-7.8-6.3-14.1-14.1-14.1C32.3,26,26,32.3,26,40.1c0,7.8,6.3,14.1,14.1,14.1
			C47.9,54.2,54.2,47.9,54.2,40.1L54.2,40.1z M53.9,24.1c-1.3,0-2.3,1-2.3,2.3c0,1.3,1,2.3,2.3,2.3c1.2,0,2.3-1,2.3-2.3
			C56.2,25.2,55.1,24.1,53.9,24.1L53.9,24.1z M28.6,20.9h23c4.3,0,7.7,3.5,7.7,7.7v23c0,4.3-3.5,7.7-7.7,7.7h-23
			c-4.3,0-7.7-3.5-7.7-7.7v-23C20.9,24.4,24.4,20.9,28.6,20.9L28.6,20.9z M51.6,18.3h-23c-5.7,0-10.3,4.6-10.3,10.3v23
			c0,5.7,4.6,10.3,10.3,10.3h23c5.7,0,10.3-4.6,10.3-10.3v-23C61.9,22.9,57.3,18.3,51.6,18.3L51.6,18.3z M29,40.1
			C29,34,34,29,40.1,29c6.2,0,11.1,5,11.1,11.1c0,6.1-5,11.1-11.1,11.1C34,51.2,29,46.3,29,40.1L29,40.1z"/>
	</g>
</g>
</svg>
