<?xml version="1.0" encoding="utf-8"?>
<!-- Generator: Adobe Illustrator 19.0.0, SVG Export Plug-In . SVG Version: 6.00 Build 0)  -->
<svg version="1.1" id="Layer_1" xmlns="http://www.w3.org/2000/svg" xmlns:xlink="http://www.w3.org/1999/xlink" x="0px" y="0px"
	 viewBox="0 0 37.1336823 35.4391937" style="enable-background:new 0 0 37.1336823 35.4391937;" xml:space="preserve">
<style type="text/css">
	.st0{fill:none;stroke:#EF3D3B;stroke-width:2;stroke-miterlimit:10;}
	.st1{fill:#FCD900;}
</style>
<symbol  id="_x2E__PREVIEW_Red" viewBox="-13.8292713 -26.2442398 27.6587257 52.4890251">
	<polyline id="XMLID_2236_" class="st0" points="13.1223478,-25.5371323 -12.4150581,0.0002725 13.1223478,25.5376778 	"/>
</symbol>
<symbol  id="Star_Small__x28_Inactive_x29_" viewBox="-22.2050552 -29.3544922 19.77425 18.871582">
	<g id="XMLID_604_">
		<path id="XMLID_561_" class="st1" d="M-12.3188477-12.140625l1.7275391-5.3183594l0.2246094-0.690918h0.7265625h5.5957031
			l-4.5297852-3.2944336l-0.5883789-0.4272461l0.2255859-0.6914063l1.7329102-5.3144531l-4.5249023,3.2832031l-0.5869141,0.4257813
			l-0.5874023-0.4257813l-4.5224609-3.2783203l1.7236328,5.3110352l0.2241211,0.6904297l-0.5869141,0.4267578l-4.5288086,3.2944336
			h5.5961914h0.7265625l0.2246094,0.690918L-12.3188477-12.140625 M-12.3164063-10.4829102
			c-0.309082,0-0.5791016-0.1992188-0.6743164-0.4887695l-2.0068359-6.1782227h-6.4960938
			c-0.3105469,0-0.5791016-0.199707-0.6762695-0.4887695c-0.0952148-0.2915039,0.0073242-0.6074219,0.2563477-0.7875977
			l5.2602539-3.8266602l-2.0053711-6.1782227c-0.097168-0.2895508,0.0053711-0.6054688,0.2543945-0.7856445
			c0.1240234-0.090332,0.269043-0.1352539,0.4135742-0.1352539s0.2895508,0.0449219,0.4140625,0.1352539l5.2602539,3.8129883
			l5.2548828-3.8129883c0.1235352-0.0898438,0.2685547-0.1376953,0.4204102-0.1376953
			c0.1445313,0,0.2895508,0.0478516,0.4077148,0.1376953c0.2470703,0.1801758,0.3510742,0.4960938,0.2612305,0.7856445
			l-2.0141602,6.1782227l5.262207,3.8266602c0.2485352,0.1801758,0.3510742,0.4960938,0.2612305,0.7875977
			c-0.0952148,0.2890625-0.3657227,0.4887695-0.6743164,0.4887695h-6.5029297l-2.0073242,6.1782227
			C-11.7426758-10.6821289-12.0126953-10.4829102-12.3164063-10.4829102L-12.3164063-10.4829102z"/>
	</g>
</symbol>
<use xlink:href="#Star_Small__x28_Inactive_x29_"  width="19.77425" height="18.871582" id="XMLID_695_" x="-22.2050552" y="-29.3544922" transform="matrix(1.8778988 0 0 -1.8778988 41.6985359 -19.6855793)" style="overflow:visible;"/>
</svg>
