<?xml version="1.0" encoding="utf-8"?>
<!-- Generator: Adobe Illustrator 19.0.0, SVG Export Plug-In . SVG Version: 6.00 Build 0)  -->
<svg version="1.1" id="Layer_1" xmlns="http://www.w3.org/2000/svg" xmlns:xlink="http://www.w3.org/1999/xlink" x="0px" y="0px"
	 viewBox="0 0 80.2 80.2" style="enable-background:new 0 0 80.2 80.2;" xml:space="preserve">
<style type="text/css">
	.st0{fill:#49A1DA;}
	.st1{fill:#FFFFFF;}
</style>
<g id="XMLID_1887_">
	<path id="XMLID_485_" class="st0" d="M80.2,40.1c0,22.1-18,40.1-40.1,40.1C18,80.2,0,62.2,0,40.1C0,18,18,0,40.1,0
		C62.3,0,80.2,18,80.2,40.1z"/>
	<path id="XMLID_484_" class="st1" d="M63.9,27.9c-1.7,0.8-3.6,1.3-5.6,1.5c2-1.2,3.6-3.1,4.3-5.3c-1.9,1.1-4,1.9-6.2,2.3
		c-1.8-1.9-4.3-3-7.1-3c-5.4,0-9.7,4.3-9.7,9.6c0,0.8,0.1,1.5,0.3,2.2c-8.1-0.4-15.3-4.2-20.1-10c-0.8,1.4-1.3,3.1-1.3,4.8
		c0,3.3,1.7,6.3,4.3,8c-1.6,0-3.1-0.5-4.4-1.2c0,0,0,0.1,0,0.1c0,1.2,0.2,2.4,0.7,3.5c1.2,3,3.9,5.3,7.2,5.9
		c-0.8,0.2-1.7,0.3-2.6,0.3c-0.6,0-1.2-0.1-1.8-0.2c1.2,3.8,4.8,6.6,9.1,6.7c-3.3,2.6-7.5,4.1-12.1,4.1c-0.8,0-1.6,0-2.3-0.1
		c4.3,2.7,9.4,4.3,14.9,4.3c15.2,0,24.6-10.6,27.1-21.5c0.4-1.9,0.7-3.9,0.7-5.8c0-0.4,0-0.8,0-1.2C60.9,31.5,62.5,29.8,63.9,27.9z"
		/>
</g>
</svg>
