<?xml version="1.0" encoding="utf-8"?>
<!-- Generator: Adobe Illustrator 19.0.0, SVG Export Plug-In . SVG Version: 6.00 Build 0)  -->
<svg version="1.1" id="Layer_1" xmlns="http://www.w3.org/2000/svg" xmlns:xlink="http://www.w3.org/1999/xlink" x="0px" y="0px"
	 viewBox="0 0 80.2 80.2" style="enable-background:new 0 0 80.2 80.2;" xml:space="preserve">
<style type="text/css">
	.st0{fill:#D91F26;}
	.st1{fill:#FFFFFF;}
</style>
<g id="XMLID_1909_">
	<path id="XMLID_964_" class="st0" d="M80.2,40.1c0,22.1-18,40.1-40.1,40.1C18,80.2,0,62.3,0,40.1C0,18,18,0,40.1,0
		C62.3,0,80.2,18,80.2,40.1z"/>
	<path id="XMLID_1911_" class="st1" d="M63.4,30.2c0,0-0.5-3.4-1.9-4.9c-1.8-2-3.8-2-4.8-2.1c-6.7-0.5-16.6-0.5-16.6-0.5h0
		c0,0-10,0-16.6,0.5c-0.9,0.1-3,0.1-4.8,2.1c-1.4,1.5-1.9,4.9-1.9,4.9s-0.5,4-0.5,8v0.5V42c0,4,0.5,8,0.5,8s0.5,3.4,1.9,4.9
		c1.8,2,4.2,1.9,5.2,2.1c3.8,0.4,16.2,0.5,16.2,0.5s10,0,16.6-0.5c0.9-0.1,3-0.1,4.8-2.1c1.4-1.5,1.9-4.9,1.9-4.9s0.5-4,0.5-8v-3.1
		v-0.7C63.9,34.2,63.4,30.2,63.4,30.2z M48,39.6l-12.8,6.9l0-10.7v-3.2l5.8,3.2L48,39.6z"/>
</g>
</svg>
