<?xml version="1.0" encoding="utf-8"?>
<!-- Generator: Adobe Illustrator 19.0.0, SVG Export Plug-In . SVG Version: 6.00 Build 0)  -->
<svg version="1.1" id="Layer_1" xmlns="http://www.w3.org/2000/svg" xmlns:xlink="http://www.w3.org/1999/xlink" x="0px" y="0px"
	 viewBox="0 0 65.0137253 82.4699631" style="enable-background:new 0 0 65.0137253 82.4699631;" xml:space="preserve">
<style type="text/css">
	.st0{fill:none;stroke:#EF3D3B;stroke-width:2;stroke-miterlimit:10;}
	.st1{fill:#EF3C3A;}
	.st2{fill:none;stroke:#EF3C3A;stroke-linecap:square;stroke-miterlimit:10;}
</style>
<symbol  id="_x2E__PREVIEW_Red" viewBox="-13.8292713 -26.2442398 27.6587257 52.4890251">
	<polyline id="XMLID_2236_" class="st0" points="13.1223478,-25.5371323 -12.4150581,0.0002725 13.1223478,25.5376778 	"/>
</symbol>
<g id="BTN_Busines_Directory_6_">
	<g id="XMLID_859_">
		<path id="XMLID_289_" class="st1" d="M32.5094185,0.9999787c13.68573,0,24.8198242,11.1328125,24.8198242,24.8168945
			c0,11.9094219-19.2156982,36.7191162-24.8196411,43.6999512C26.906271,62.5329361,7.6921592,37.7134781,7.6921592,25.8168736
			C7.6921592,12.1327915,18.8251553,0.9999787,32.5094185,0.9999787 M32.5092354,14.5141392
			c-1.6827374-1.8526611-3.5786114-3.2630615-7.0737286-3.2630615c-0.4648438,0-0.9662476,0.0256348-1.4915161,0.076416
			c-3.4400024,0.3366699-7.3574219,3.380249-7.8295898,9.2667236l-0.0031738,0.039917v0.0400391v1.7613525v0.0388184
			l0.0029907,0.0388184c0.487854,6.2648926,5.6627197,12.7736797,15.8204956,19.8984356l0.5741558,0.40271l0.5742188-0.40271
			c10.1578979-7.1236572,15.3339844-13.6324444,15.8240356-19.8980694l0.0030518-0.0389404v-0.0390625v-1.7613525v-0.0401611
			l-0.0032349-0.0401611c-0.4740601-5.8863525-4.3917847-8.9296875-7.8328247-9.2664795
			c-0.5256348-0.0506592-1.0275269-0.0762939-1.4917603-0.0762939
			C36.0896797,11.2510777,34.1931953,12.6616001,32.5092354,14.5141392 M32.5094185-0.0000213
			c-14.2399273,0-25.8172588,11.5776367-25.8172588,25.8168945c0,12.8137188,21.1915283,39.5993652,25.8172588,45.291748
			c4.6282959-5.6923828,25.8198242-32.4780273,25.8198242-45.291748
			C58.3292427,11.5776157,46.7486763-0.0000213,32.5094185-0.0000213L32.5094185-0.0000213z M32.5089302,16.0389194
			c1.9160156-2.2806396,3.5880127-3.7878418,7.0734253-3.7878418c0.4353027,0,0.8988037,0.0238037,1.3959351,0.0716553
			c3.0165405,0.2952881,6.5055542,3.0581055,6.9318848,8.3514404v1.7613525
			c-0.3963013,5.0670166-4.2214966,11.3170147-15.4012451,19.1573467
			c-11.1780376-7.840332-15.0031719-14.0903301-15.3977032-19.1573467v-1.7613525
			c0.4245605-5.293335,3.9135742-8.0561523,6.9301758-8.3514404c0.4953613-0.0478516,0.9589233-0.0716553,1.394104-0.0716553
			C28.9226284,12.2510777,30.5946255,13.7582798,32.5089302,16.0389194L32.5089302,16.0389194z"/>
	</g>
	<path id="XMLID_857_" class="st2" d="M41.7043839,59.0684357c13.1935959,1.4435921,22.8089676,5.9141312,22.8089676,11.2053833
		c0,6.459053-14.3280716,11.6951523-32.0026436,11.6951523S0.5080632,76.732872,0.5080632,70.273819
		c0-5.2912521,9.6153736-9.7617912,22.8089714-11.2053833"/>
</g>
</svg>
