<?xml version="1.0" encoding="utf-8"?>
<!-- Generator: Adobe Illustrator 19.0.0, SVG Export Plug-In . SVG Version: 6.00 Build 0)  -->
<svg version="1.1" id="Layer_1" xmlns="http://www.w3.org/2000/svg" xmlns:xlink="http://www.w3.org/1999/xlink" x="0px" y="0px"
	 viewBox="0 0 65.0137253 82.4699631" style="enable-background:new 0 0 65.0137253 82.4699631;" xml:space="preserve">
<style type="text/css">
	.st0{fill:none;stroke:#EF3D3B;stroke-width:2;stroke-miterlimit:10;}
	.st1{fill:#EF3C3A;}
	.st2{fill:none;stroke:#EF3C3A;stroke-linecap:square;stroke-miterlimit:10;}
</style>
<symbol  id="_x2E__PREVIEW_Red" viewBox="-13.8292713 -26.2442398 27.6587257 52.4890251">
	<polyline id="XMLID_2236_" class="st0" points="13.1223478,-25.5371323 -12.4150581,0.0002725 13.1223478,25.5376778 	"/>
</symbol>
<g id="BTN_Busines_Directory_7_">
	<g id="XMLID_997_">
		<path id="XMLID_398_" class="st1" d="M32.5156021,70.3297806C27.4609165,64.0670853,7.1982203,38.188179,7.1982203,25.8317356
			c0-13.9599609,11.3574228-25.3168945,25.3173828-25.3168945c13.9609375,0,25.3193359,11.3569336,25.3193359,25.3168945
			C57.834938,38.1979446,37.5702896,64.0690384,32.5156021,70.3297806z M25.4413853,11.7658176
			c-0.4482422,0-0.9335938,0.0249023-1.4423828,0.0742188c-3.2397461,0.3173828-6.9306641,3.2089844-7.3803711,8.8085938
			l-0.0014648,1.8017578c0.4770508,6.1450195,5.5825195,12.5332012,15.6103497,19.5668926l0.2871094,0.2011719l0.2871094-0.2011719
			c10.0283203-7.0327148,15.1347656-13.4204082,15.6123047-19.5278301l0.0019531-1.8007813
			c-0.4521484-5.6396484-4.1435547-8.53125-7.3828125-8.8486328c-0.5117188-0.0493164-0.9970703-0.0742188-1.4453125-0.0742188
			c-3.546875,0-5.3691406,1.5541992-7.0732422,3.5170898C30.812479,13.3195286,28.99119,11.7658176,25.4413853,11.7658176z"/>
		<path id="XMLID_393_" class="st1" d="M32.515358,1.0147187c13.68573,0,24.8198242,11.1328125,24.8198242,24.8168945
			c0,11.9094219-19.2156982,36.7191162-24.8196411,43.6999512C26.9122105,62.5476761,7.6980982,37.7282181,7.6980982,25.8316135
			C7.6980982,12.1475315,18.8310947,1.0147187,32.515358,1.0147187 M32.5151749,14.5288792
			c-1.6827374-1.8526611-3.5786114-3.2630615-7.0737286-3.2630615c-0.4648438,0-0.9662476,0.0256348-1.4915161,0.076416
			c-3.4400024,0.3366699-7.3574219,3.380249-7.8295898,9.2667236l-0.0031738,0.039917v0.0400391v1.7613525v0.0388184
			l0.0029907,0.0388184c0.487854,6.2648926,5.6627197,12.7736797,15.8204956,19.8984356l0.5741558,0.40271l0.5742188-0.40271
			C43.2469254,35.302681,48.4230118,28.7938938,48.913063,22.5282688l0.0030518-0.0389404v-0.0390625v-1.7613525v-0.0401611
			l-0.0032349-0.0401611c-0.4740601-5.8863525-4.3917847-8.9296875-7.8328247-9.2664795
			c-0.5256348-0.0506592-1.0275269-0.0762939-1.4917603-0.0762939
			C36.0956192,11.2658176,34.1991348,12.6763401,32.5151749,14.5288792 M32.515358,0.0147186
			c-14.2399273,0-25.8172607,11.5776367-25.8172607,25.8168945c0,12.8137188,21.1915283,39.5993652,25.8172607,45.291748
			c4.6282959-5.6923828,25.8198242-32.4780273,25.8198242-45.291748
			C58.3351822,11.5923557,46.7546158,0.0147186,32.515358,0.0147186L32.515358,0.0147186z M32.5148697,16.0536594
			c1.9160156-2.2806396,3.5880127-3.7878418,7.0734253-3.7878418c0.4353027,0,0.8988037,0.0238037,1.3959351,0.0716553
			c3.0165405,0.2952881,6.5055542,3.0581055,6.9318848,8.3514404v1.7613525
			c-0.3963013,5.0670166-4.2214966,11.3170147-15.4012451,19.1573467
			c-11.1780376-7.840332-15.0031719-14.0903301-15.3977032-19.1573467v-1.7613525
			c0.4245605-5.293335,3.9135742-8.0561523,6.9301758-8.3514404c0.4953613-0.0478516,0.9589233-0.0716553,1.394104-0.0716553
			C28.9285679,12.2658176,30.600565,13.7730198,32.5148697,16.0536594L32.5148697,16.0536594z"/>
	</g>
	<path id="XMLID_996_" class="st2" d="M41.7103233,59.0831757c13.1935959,1.4435921,22.8089714,5.9141312,22.8089714,11.2053833
		c0,6.459053-14.3280754,11.6951523-32.0026474,11.6951523S0.5140023,76.747612,0.5140023,70.288559
		c0-5.2912521,9.6153746-9.7617912,22.8089695-11.2053833"/>
</g>
</svg>
