<?xml version="1.0" encoding="utf-8"?>
<!-- Generator: Adobe Illustrator 19.0.0, SVG Export Plug-In . SVG Version: 6.00 Build 0)  -->
<svg version="1.1" id="Layer_1" xmlns="http://www.w3.org/2000/svg" xmlns:xlink="http://www.w3.org/1999/xlink" x="0px" y="0px"
	 viewBox="0 0 311.9 309.8" style="enable-background:new 0 0 311.9 309.8;" xml:space="preserve">
<style type="text/css">
	.st0{fill:none;stroke:#EF3C3A;stroke-width:3;stroke-miterlimit:10;}
</style>
<g id="XMLID_1786_">
	<path id="XMLID_1806_" class="st0" d="M288.6,78c-13.7-23.4-32.2-42-55.6-55.6C209.6,8.7,184,1.9,156.3,1.9
		c-27.7,0-53.3,6.8-76.7,20.5C56.1,36,37.6,54.6,23.9,78c-13.7,23.4-20.5,49-20.5,76.7c0,27.7,6.8,53.3,20.5,76.7
		c13.7,23.4,32.2,42,55.6,55.6c23.4,13.7,49,20.5,76.7,20.5c27.7,0,53.3-6.8,76.7-20.5c23.4-13.7,42-32.2,55.6-55.6
		c13.7-23.4,20.5-49,20.5-76.7C309.1,127,302.3,101.4,288.6,78L288.6,78z M250,209.1c-9.7,16.6-22.8,29.7-39.4,39.4
		c-16.6,9.7-34.7,14.5-54.3,14.5c-19.6,0-37.8-4.8-54.3-14.5c-16.6-9.7-29.7-22.8-39.4-39.4C52.9,192.5,48,174.4,48,154.7
		c0-19.6,4.8-37.8,14.5-54.3C72.2,83.8,85.4,70.7,102,61c16.6-9.7,34.7-14.5,54.3-14.5c19.6,0,37.8,4.8,54.3,14.5
		c16.6,9.7,29.7,22.8,39.4,39.4c9.7,16.6,14.5,34.7,14.5,54.3C264.6,174.4,259.7,192.5,250,209.1L250,209.1z M250,209.1"/>
	<path id="XMLID_1787_" class="st0" d="M216.2,100c-2.5-2.5-5.5-3.8-9-3.8c-3.4,0-6.4,1.3-9,3.8l-54.7,54.7l-29.3-29.3
		c-2.5-2.5-5.5-3.8-9-3.8c-3.4,0-6.4,1.3-9,3.8l-20.3,20.3c-2.5,2.5-3.8,5.5-3.8,9c0,3.4,1.3,6.4,3.8,8.9l58.5,58.5
		c2.5,2.5,5.5,3.8,9,3.8s6.4-1.3,9-3.8l84-84c2.5-2.5,3.8-5.5,3.8-8.9c0-3.4-1.3-6.4-3.8-9L216.2,100z M216.2,100"/>
</g>
</svg>
