<?xml version="1.0" encoding="utf-8"?>
<!-- Generator: Adobe Illustrator 19.0.0, SVG Export Plug-In . SVG Version: 6.00 Build 0)  -->
<svg version="1.1" id="Layer_1" xmlns="http://www.w3.org/2000/svg" xmlns:xlink="http://www.w3.org/1999/xlink" x="0px" y="0px"
	 viewBox="0 0 411.6762085 411.6762085" style="enable-background:new 0 0 411.6762085 411.6762085;" xml:space="preserve">
<style type="text/css">
	.st0{fill:none;stroke:#EF3D3B;stroke-width:2;stroke-miterlimit:10;}
	.st1{fill:none;stroke:#EF3C3A;stroke-width:2;stroke-miterlimit:10;}
	.st2{fill:#EF3C3A;}
</style>
<symbol  id="_x2E__PREVIEW_Red" viewBox="-13.8292713 -26.2442398 27.6587257 52.4890251">
	<polyline id="XMLID_2236_" class="st0" points="13.1223478,-25.5371323 -12.4150581,0.0002725 13.1223478,25.5376778 	"/>
</symbol>
<g id="IMG_Defoult_Pic">
	<circle id="XMLID_1292_" class="st1" cx="205.8383026" cy="205.8382874" r="204.8381042"/>
	<path id="XMLID_937_" class="st2" d="M159.8912201,300.0909729c2.9298553,0.3990173,6.528244,0.0686951,10.7945251-0.9988403
		c8.5272827-2.0003662,16.257843-6.5982666,23.1884003-13.7937622c8.9269562-9.3266296,19.8555908-26.7868042,32.7832489-52.3739014
		c3.3295288-6.5275879,15.1235657-31.5835724,35.3821259-75.1613312
		c13.4588013-28.9166412,28.9853516-46.9759979,46.5763245-54.1721268
		c7.1961365-2.9298477,14.5924377-3.6637955,22.1888733-2.1992035c6.2620239,1.068222,11.793396,3.3328247,16.5914612,6.7964554
		c3.7292175,2.9331512,4.9975891,7.3308945,3.7979126,13.1932297c-0.6685486,2.9331512-1.7334595,5.597435-3.1987305,7.9961472
		c-0.1340942-2.3987122-0.5991821-4.7974243-1.3991699-7.1961365c-1.8675842-4.7974167-4.7320251-7.1280823-8.5953369-6.9966202
		c-7.0653076,0.3996735-14.8612976,3.7324982-23.3879089,9.9951706
		c-8.7955017,6.6649933-16.260498,14.9920959-22.3890686,24.9872742
		c-8.9295959,14.2614594-21.123291,35.7817993-36.581131,64.5669708
		c-3.5984039,6.5308838-9.0643616,16.8609924-16.3919525,30.9850464
		c-5.7308807,10.6623993-29.2068939,54.3905182-69.7640686,64.9653168
		c-6.29776,1.6420593-12.7935638-3.1973877-19.1903381-5.9957886
		c-12.9276733-5.5967407-19.2590485-12.2597656-18.9901733-19.9903259c0.1307983-5.9971008,3.463623-15.4584961,9.9945068-28.385498
		c3.9980774-7.9961548,10.5950165-19.9216461,19.7901917-35.7818146
		c8.9269409-15.0581512,14.5237122-24.9872742,16.791626-29.7846832c3.8632965-7.9961395,3.9980621-11.4597778,0.3996735-10.3948517
		c-16.9257355,4.7974243-37.5806732,14.9266968-61.9687576,30.3845367
		c-14.3922577,9.0643616-25.3869476,17.7911377-32.9827576,26.1862946
		c-9.1958237,10.263382-12.9283218,19.6600494-11.194191,28.1859894c2.129837,11.8634033,6.3961182,17.991333,12.7928925,18.3903198
		c3.1987228,0.1347961,6.1972733-0.8640747,8.9956589-2.9978638c-1.4678955,2.667572-3.3982315,4.7973938-5.796936,6.3961182
		c-4.9321899,3.1987-10.1292801,2.1985168-15.5919418-2.9978943c-7.3308945-7.0620422-11.4630737-15.4571838-12.3938866-25.1867981
		c-0.7993507-11.4604187,3.329525-21.9893799,12.3938866-31.5842133
		c10.6597519-11.3256683,35.1132507-24.7190704,73.3624573-40.1795502
		c17.0572052-6.7971039,31.6496277-11.5258179,43.7779388-14.192749
		c13.7237091-3.1987152,22.3196869-3.2641144,25.7866211-0.2001648
		C180.9464874,245.5872192,162.421402,288.0967712,159.8912201,300.0909729z"/>
</g>
</svg>
