<?xml version="1.0" encoding="utf-8"?>
<!-- Generator: Adobe Illustrator 19.0.0, SVG Export Plug-In . SVG Version: 6.00 Build 0)  -->
<svg version="1.1" id="Layer_1" xmlns="http://www.w3.org/2000/svg" xmlns:xlink="http://www.w3.org/1999/xlink" x="0px" y="0px"
	 viewBox="0 0 40.256958 38.5765724" style="enable-background:new 0 0 40.256958 38.5765724;" xml:space="preserve">
<style type="text/css">
	.st0{fill:none;stroke:#EF3D3B;stroke-width:2;stroke-miterlimit:10;}
	.st1{fill:#FFFFFF;stroke:#FFFFFF;stroke-width:1.5;stroke-miterlimit:10;}
</style>
<symbol  id="_x2E__PREVIEW_Red" viewBox="-13.8292713 -26.2442398 27.6587257 52.4890251">
	<polyline id="XMLID_2236_" class="st0" points="13.1223478,-25.5371323 -12.4150581,0.0002725 13.1223478,25.5376778 	"/>
</symbol>
<path id="Off_3_" class="st1" d="M29.1550179,0.8197443c0.54636,0,1.1282539,0.0299067,1.7523499,0.0899475
	c3.7867088,0.3708202,8.1665039,3.8388596,8.7017555,10.4840469v2.2109804
	c-0.4974976,6.360857-5.2992859,14.2064285-19.3335438,24.0487003C6.2434888,27.8111477,1.4417021,19.9655762,0.9464791,13.6047192
	v-2.2109804C1.4794551,4.7485514,5.8592505,1.2805121,9.6460171,0.9096919
	c0.6218777-0.0600408,1.2037621-0.0899475,1.7501221-0.0899475c4.377532,0,6.4763565,1.8921952,8.8794403,4.7550507
	C22.6808891,2.7119396,24.7797012,0.8197443,29.1550179,0.8197443"/>
</svg>
