<?xml version="1.0" encoding="utf-8"?>
<!-- Generator: Adobe Illustrator 19.0.0, SVG Export Plug-In . SVG Version: 6.00 Build 0)  -->
<svg version="1.1" id="Layer_1" xmlns="http://www.w3.org/2000/svg" xmlns:xlink="http://www.w3.org/1999/xlink" x="0px" y="0px"
	 viewBox="0 0 85.36586 85.47332" style="enable-background:new 0 0 85.36586 85.47332;" xml:space="preserve">
<style type="text/css">
	.st0{fill:none;stroke:#EF3D3B;stroke-width:2;stroke-miterlimit:10;}
	.st1{fill:none;}
	.st2{fill:#EF3C3A;}
	.st3{fill:none;stroke:#EF3C3A;stroke-miterlimit:10;}
</style>
<symbol  id="_x2E__PREVIEW_Red" viewBox="-13.8292713 -26.2442398 27.6587257 52.4890251">
	<polyline id="XMLID_2236_" class="st0" points="13.1223478,-25.5371323 -12.4150581,0.0002725 13.1223478,25.5376778 	"/>
</symbol>
<rect id="XMLID_2129_" y="0.0890254" class="st1" width="85.3481903" height="85.562233"/>
<rect id="XMLID_1572_" x="0.008837" y="-0.0444565" class="st1" width="85.3481903" height="85.562233"/>
<g id="XMLID_1414_">
	<path id="XMLID_520_" class="st2" d="M38.9098854,84.9291763c-2.34375,0-4.3271484-1.6777344-4.715332-3.9892578
		l-1.0488281-6.2958984l-0.2939453-0.0917969c-1.9648418-0.6123047-3.8330059-1.3808594-5.5527325-2.2832031l-0.2719727-0.1435547
		l-5.262207,3.7460938c-0.8081055,0.5810547-1.762207,0.8876953-2.7602539,0.8876953
		c-1.2705078,0-2.46875-0.4990234-3.3745117-1.4052734l-5.3154297-5.3154297
		c-1.6645508-1.6484375-1.8808594-4.2353516-0.5170898-6.1523438l3.6953125-5.1386719l-0.1479492-0.2753906
		c-0.9838867-1.8271484-1.7939453-3.7480469-2.4072266-5.7089844l-0.0913086-0.2919922l-6.3657227-1.0869141
		c-2.3125002-0.3876953-3.9902346-2.3701172-3.9902346-4.7148438v-7.5092773c0-2.3442383,1.6777344-4.3276367,3.9892581-4.7158203
		l6.2280273-1.0493164l0.0893555-0.2973633c0.6010742-2.0009785,1.387207-3.9340839,2.3364258-5.7451191l0.1425781-0.2719727
		l-3.7456055-5.262207c-1.3579102-1.9072266-1.140625-4.4946289,0.5166016-6.1523438l5.3330078-5.3144531
		c0.8916016-0.9082031,2.0888672-1.40625,3.3745117-1.40625c1.0107422,0,1.9707031,0.3066406,2.7763672,0.8867188
		l5.1591797,3.7148438l0.2753906-0.1484375c1.8251953-0.9833984,3.7456055-1.7929688,5.7084942-2.4067383l0.2924805-0.0913086
		l1.0849609-6.3657222c0.3881836-2.3125002,2.371582-3.9902346,4.7163086-3.9902346h7.5092773
		c2.34375,0,4.3261719,1.6777344,4.7148438,3.9892581l1.0507813,6.2275386l0.2978516,0.0893555
		c2.0107422,0.6020508,4.0087891,1.4238281,5.9384766,2.4428711l0.2724609,0.1435547l5.2089844-3.7099609
		c0.8085976-0.5820313,1.7617226-0.8886719,2.7597694-0.8886719c1.2714844,0,2.4697266,0.4990234,3.375,1.4052734
		l5.3154297,5.3154297c1.6640625,1.6484375,1.8808594,4.2353516,0.5175781,6.152832l-3.7109375,5.190918l0.1435547,0.2734375
		c0.9599609,1.8149414,1.7578125,3.7421875,2.3730469,5.7280293l0.0908203,0.293457l6.2958984,1.0693359
		c2.3232422,0.3886719,3.9863281,2.3691406,3.9541016,4.7080078v7.515625c0,2.3447266-1.6777344,4.328125-3.9892578,4.7158203
		l-6.2988281,1.0498047l-0.0898438,0.296875c-0.5742188,1.8925781-1.3720703,3.8193359-2.3710938,5.7265625l-0.1425781,0.2724609
		l3.7089844,5.2089844c1.3574219,1.9082031,1.140625,4.4960938-0.5166016,6.1533203l-5.3154297,5.3144531
		c-0.9072266,0.9072266-2.1054688,1.40625-3.375,1.40625c-1.0097656,0-1.96875-0.3066406-2.7753944-0.8876953l-5.1933594-3.7128906
		l-0.2724609,0.1445313c-1.8115234,0.9580078-3.7392578,1.7568359-5.7294922,2.3730469l-0.2939453,0.0908203l-1.0683594,6.2958984
		c-0.3876953,2.3125-2.3701172,3.9902344-4.7148438,3.9902344H38.9098854z M42.6833229,28.6269283
		c-7.7802734,0-14.1098614,6.3295918-14.1098614,14.1098652s6.3295879,14.109375,14.1098614,14.109375
		c7.7792969,0,14.1083984-6.3291016,14.1083984-14.109375S50.4626198,28.6269283,42.6833229,28.6269283z"/>
	<path id="XMLID_515_" class="st2" d="M46.2770729,1.0445311c2.0986938,0,3.8742676,1.5021973,4.2219849,3.5726321
		l0.9988403,5.920898l0.1034546,0.6131592l0.5957642,0.1784668c1.9787598,0.5925293,3.9465332,1.4019775,5.8486938,2.4058838
		l0.5449219,0.2875977l0.5018921-0.3574219l4.9628944-3.5345459c0.7197876-0.5185547,1.5722656-0.7927246,2.46521-0.7927246
		c1.1367188,0,2.2097168,0.4470215,3.0214233,1.2587891l5.3186646,5.3188477
		c1.4877319,1.4736328,1.6809692,3.7890625,0.4607544,5.5039063l-3.5316162,4.940918l-0.3592529,0.5026855l0.2886963,0.5461426
		c0.9438477,1.7855225,1.7300415,3.68396,2.336792,5.64258l0.1818848,0.5871582l0.605896,0.1027832l5.9951782,1.0180664
		c2.0775146,0.3479004,3.5644531,2.1175537,3.5355835,4.2216797v7.5087891c0,2.0996094-1.5020142,3.8752441-3.5705566,4.2220459
		l-5.9928589,0.9990234l-0.6123047,0.1021729l-0.1801758,0.5939941c-0.5651855,1.862793-1.3513794,3.760376-2.336731,5.6398926
		l-0.2852173,0.5440674l0.3563232,0.5003662l3.531189,4.9586182c1.2157593,1.7087402,1.0211792,4.0257568-0.4625854,5.5095215
		l-5.3153076,5.3149414c-0.8121948,0.8121338-1.8851929,1.2593994-3.0214233,1.2593994
		c-0.9035034,0-1.762146-0.2744141-2.4859657-0.7955322l-4.9407349-3.53125l-0.5028076-0.359375l-0.5463257,0.2890625
		c-1.7816162,0.942627-3.6802979,1.7288818-5.6434326,2.3369141l-0.5872192,0.1818848l-0.1027832,0.6060791l-1.0166626,5.9946289
		c-0.3468628,2.069458-2.1224365,3.5715332-4.2219849,3.5715332h-7.5272827c-2.0988159,0-3.8745117-1.5021973-4.2219238-3.5706787
		l-0.9988403-5.9926758L33.587986,74.258522l-0.5874634-0.1832275c-1.9337139-0.6032715-3.7738018-1.3601074-5.4692364-2.2493896
		l-0.5439453-0.2852783l-0.5004272,0.3562012l-5.0161743,3.5703125c-0.720459,0.5183105-1.5731812,0.7922363-2.4660645,0.7922363
		c-1.1362915,0-2.2091675-0.4472656-3.0211792-1.2593994l-5.3186646-5.3182373
		c-1.4877319-1.473877-1.6809692-3.7893066-0.4624023-5.5015869l3.5142212-4.8867188l0.3649902-0.5075684l-0.2963867-0.550415
		c-0.9683838-1.7984619-1.7657471-3.6896973-2.3699341-5.6213379l-0.1827393-0.5841064l-0.6033936-0.1030273l-6.0669556-1.0356445
		c-2.0695193-0.3474121-3.5715945-2.1229248-3.5715945-4.2218018v-7.5092773c0-2.0991211,1.5021362-3.875,3.5722048-4.2229004
		l5.9213257-0.9975586l0.6126709-0.1031494l0.178833-0.5950928c0.5928955-1.9721699,1.3668823-3.875246,2.3005371-5.6566181
		l0.2850952-0.5438232l-0.3560791-0.5002441l-3.5674438-5.0124512c-1.2159424-1.7075195-1.0211792-4.024292,0.461853-5.5074463
		l5.3410034-5.3227539c0.7932129-0.8078613,1.8636475-1.2528076,3.0140991-1.2528076
		c0.9049683,0,1.7639771,0.2740479,2.4840088,0.7924805l4.9050293,3.5322266l0.5078125,0.3656006l0.5508423-0.2967529
		c1.7973022-0.9683838,3.6884155-1.7657471,5.6209698-2.369751l0.5845337-0.1827393l0.1029053-0.6036377l1.0342407-6.0665278
		c0.3474731-2.0695803,2.1234131-3.5717776,4.2227783-3.5717776H46.2770729 M42.6830788,57.3458023
		c8.055481,0,14.6090698-6.5534668,14.6090698-14.6088867c0-8.0559082-6.5535889-14.6098652-14.6090698-14.6098652
		c-8.0556641,0-14.6093731,6.553957-14.6093731,14.6098652C28.0737057,50.7923355,34.6274147,57.3458023,42.6830788,57.3458023
		 M46.2770729,0.0445311h-7.5092163c-2.586731,0-4.7806396,1.8549805-5.2089844,4.40625l-1.0338135,6.0639644
		c-1.9979229,0.6245117-3.9428082,1.4448242-5.7969341,2.4438477l-4.9050293-3.5322266
		c-0.8918457-0.6420898-1.9622803-0.980957-3.0683594-0.980957c-1.4091187,0-2.7468262,0.5532227-3.7276611,1.5522461
		l-5.333313,5.3149414c-1.8195801,1.8198242-2.069519,4.690918-0.5705566,6.7958984l3.5673218,5.012207
		c-0.9815063,1.8725586-1.7662964,3.8164063-2.3724976,5.8330097l-5.9213257,0.9975586
		c-2.5510867,0.4287109-4.4060669,2.6225586-4.4060669,5.2089844v7.5092773c0,2.5859375,1.8549805,4.7797852,4.4060669,5.2080078
		l6.064209,1.0351563c0.6245117,1.996582,1.4447632,3.9414063,2.4438477,5.796875l-3.5142212,4.8867188
		c-1.4980469,2.1049805-1.2664185,4.9760742,0.5704956,6.7958984l5.3153687,5.3149414
		c0.9988403,0.9990234,2.3191528,1.5522461,3.7282715,1.5522461c1.1052246,0,2.1582031-0.3388672,3.0500488-0.9804688
		l5.012085-3.5673828c1.8012695,0.9448242,3.6919556,1.7119141,5.6359234,2.3183594l0.9988403,5.9926758
		c0.4285278,2.5512695,2.6224365,4.40625,5.208313,4.40625h7.5272827c2.586731,0,4.7806396-1.8549805,5.208252-4.40625
		l1.0162964-5.9926758c2.0161743-0.6245117,3.960144-1.4267578,5.8151855-2.4082031l4.9407349,3.53125
		c0.8917885,0.6420898,1.9622231,0.9819336,3.0674477,0.9819336c1.4093018,0,2.7294312-0.5532227,3.7285156-1.5522461
		l5.3153076-5.3149414c1.8193359-1.8193359,2.0683594-4.690918,0.5703125-6.7963867l-3.5314331-4.9589844
		c0.9814453-1.8720703,1.8019409-3.8164063,2.407959-5.8139648l5.9928589-0.9990234
		c2.5510864-0.4277344,4.4061279-2.621582,4.4061279-5.2084961v-7.5087891
		c0.0356445-2.5869141-1.8193359-4.7807617-4.3704224-5.2080078l-5.9929199-1.0175781
		c-0.6242676-2.0151386-1.4273682-3.9589863-2.4078979-5.8139668l3.5316162-4.940918
		c1.4978638-2.1049805,1.2661743-4.9765625-0.5705566-6.7958984L70.2492447,9.890234
		c-0.9988403-0.9990234-2.3192139-1.5517578-3.7285156-1.5517578c-1.1051636,0-2.15802,0.3388672-3.0498085,0.9814453
		l-4.958374,3.53125c-1.9263306-1.0166016-3.9416504-1.8544922-6.0285645-2.4794922l-0.9988403-5.920898
		C51.0566139,1.8995116,48.8627052,0.0445311,46.2770729,0.0445311L46.2770729,0.0445311z M42.6830788,56.3458023
		c-7.5092163,0-13.6093731-6.0996094-13.6093731-13.6088867c0-7.5087891,6.1001568-13.6098652,13.6093731-13.6098652
		c7.5089722,0,13.6090698,6.1010761,13.6090698,13.6098652C56.2921486,50.2461929,50.1920509,56.3458023,42.6830788,56.3458023
		L42.6830788,56.3458023z"/>
</g>
<g id="BTN_Settings_1_">
	<g id="XMLID_720_">
		<path id="XMLID_497_" class="st2" d="M46.2770729,1.0446532c2.0986938,0,3.8742065,1.5020752,4.2219849,3.5723879
			l0.9988403,5.9213862l0.1035156,0.6132813L52.1973,11.3300533c1.9787598,0.5921631,3.9464111,1.4016113,5.8483276,2.4057617
			l0.5450439,0.2878418l0.5020142-0.3575439l4.9628944-3.53479c0.7197876-0.5186768,1.5722046-0.7928467,2.4651489-0.7928467
			c1.1364746,0,2.2095337,0.4471436,3.0214844,1.2591553l5.3186035,5.3186035
			c1.4877319,1.4736328,1.6809692,3.7889404,0.4607544,5.5036621l-3.5316162,4.94104l-0.3592529,0.5026855l0.2886963,0.5462646
			c0.9436646,1.7850342,1.7298584,3.6834717,2.336853,5.6427021l0.1818848,0.5871582l0.605957,0.1027832l5.994873,1.0175781
			c2.0776367,0.3482666,3.5646362,2.118042,3.5357666,4.2220459v7.5090332c0,2.0994873-1.5020142,3.8751221-3.5705566,4.2219238
			l-5.9928589,0.9987793l-0.6123047,0.1021729l-0.1802368,0.5939941c-0.5648804,1.8624268-1.3510742,3.7601318-2.3366699,5.6402588
			l-0.2851563,0.5439453l0.3562622,0.5003662l3.53125,4.9588623c1.2156982,1.708374,1.0211182,4.0251465-0.4626465,5.5089111
			l-5.3152466,5.3153076c-0.8121338,0.8120117-1.8851929,1.2591553-3.0214844,1.2591553
			c-0.9035645,0-1.7622681-0.274292-2.4859657-0.7952881l-4.9407349-3.5313721l-0.5028076-0.359375l-0.5463257,0.2890625
			c-1.7819214,0.942749-3.680603,1.7288818-5.6433105,2.3366699l-0.5873413,0.1817627l-0.1027832,0.6062012l-1.0166016,5.994751
			c-0.3468628,2.0693359-2.1225586,3.5714111-4.2220459,3.5714111h-7.5272827c-2.0988159,0-3.8744507-1.5021973-4.2218628-3.5705566
			l-0.9989014-5.9927979l-0.1011963-0.6070557l-0.5875854-0.1832275c-1.9317608-0.6021729-3.7717876-1.3588867-5.4689922-2.2491455
			l-0.5439453-0.2854004l-0.5004883,0.3562012l-5.0163574,3.5704346c-0.7200928,0.5183105-1.5728149,0.7922363-2.4658813,0.7922363
			c-1.1364746,0-2.2093506-0.4471436-3.0211792-1.2592773l-5.3186646-5.3183594
			c-1.487854-1.4737549-1.6810913-3.7891846-0.4624023-5.5015869l3.5142212-4.8868408l0.3649902-0.5075684l-0.2964478-0.550415
			c-0.9684448-1.7982178-1.7657471-3.6894531-2.369873-5.6212158l-0.1827393-0.5843506l-0.6034546-0.1029053l-6.0668945-1.0352783
			c-2.0695193-0.3474121-3.5715945-2.1229248-3.5715945-4.2218018v-7.5092773c0-2.0991211,1.5021362-3.8751221,3.5722659-4.2229004
			l5.9213257-0.9979248l0.6126099-0.1032715l0.178833-0.5948486c0.5928955-1.9720478,1.3669434-3.875124,2.3005981-5.656496
			l0.2850342-0.5438232l-0.3560791-0.5002441l-3.5674438-5.0123291c-1.2160645-1.7076416-1.0213013-4.0244141,0.461853-5.5075684
			l5.3411255-5.322876c0.7929077-0.8077393,1.8633423-1.2525635,3.0139771-1.2525635
			c0.9051514,0,1.7641602,0.2739258,2.4839478,0.7921143l4.9050903,3.5323486l0.5078125,0.3657227l0.5509644-0.2967529
			c1.7973022-0.9685059,3.6884155-1.7657471,5.6207867-2.3696289l0.5845947-0.1827393l0.1029053-0.6036377l1.0343018-6.0668941
			c0.3474121-2.0694582,2.1233521-3.5715334,4.2227173-3.5715334H46.2770729 M46.2770729,0.0446532h-7.5092163
			c-2.586731,0-4.7806396,1.8549805-5.2089233,4.4060059l-1.0338745,6.0643306
			c-1.9979229,0.6243896-3.9428082,1.4447021-5.7968731,2.4437256l-4.9050903-3.5324707
			c-0.8918457-0.6419678-1.9622803-0.9805908-3.0683594-0.9805908c-1.4090576,0-2.7468262,0.5529785-3.7276001,1.552002
			l-5.333374,5.3150635c-1.8195801,1.8195801-2.069519,4.69104-0.5705566,6.7960205l3.5673218,5.012085
			c-0.9814453,1.8725586-1.7662964,3.8165283-2.3724976,5.8327656l-5.9213257,0.9979248
			c-2.5510867,0.4285889-4.4060669,2.6224365-4.4060669,5.2089844v7.5092773c0,2.5858154,1.8549805,4.7797852,4.4060669,5.2080078
			l6.064209,1.03479c0.6245117,1.9970703,1.4448242,3.9418945,2.4438477,5.796875l-3.5142212,4.8868408
			c-1.4980469,2.1048584-1.2664185,4.9763184,0.5705566,6.7958984l5.3153076,5.3150635
			c0.9988403,0.9991455,2.3192139,1.552124,3.7282715,1.552124c1.1052246,0,2.1582642-0.3387451,3.0500488-0.9805908
			l5.012085-3.5673828c1.8013306,0.9449463,3.6919556,1.7124023,5.6359234,2.3183594l0.9989014,5.9927979
			c0.4284668,2.5511475,2.6223755,4.4061279,5.208252,4.4061279h7.5272827c2.586731,0,4.7806396-1.8549805,5.208313-4.4061279
			l1.0162354-5.9927979c2.0161743-0.6242676,3.960144-1.4265137,5.8151855-2.407959l4.9407349,3.5313721
			c0.8918495,0.6419678,1.9622231,0.9816895,3.0674477,0.9816895c1.4093018,0,2.7294312-0.5531006,3.7285156-1.552002
			l5.3153076-5.3153076c1.8193359-1.8193359,2.0683594-4.6907959,0.5703125-6.7958984l-3.5314331-4.9591064
			c0.9815063-1.8723145,1.8019409-3.8162842,2.407959-5.814209L80.968605,51.69944
			c2.5510864-0.4276123,4.4061279-2.621582,4.4061279-5.208252v-7.5090332
			c0.0356445-2.586792-1.8193359-4.7806396-4.3704224-5.208252l-5.9928589-1.0172119
			c-0.6243286-2.0152607-1.4273682-3.9592304-2.407959-5.8142109l3.5316162-4.94104
			c1.4978638-2.1048584,1.2662354-4.9763184-0.5705566-6.7956543l-5.3152466-5.3153076
			c-0.9989014-0.9989014-2.3192139-1.552002-3.7285767-1.552002c-1.1051636,0-2.157959,0.3388672-3.0498085,0.9815674
			l-4.958374,3.5314941c-1.9263306-1.0170898-3.9416504-1.8549805-6.0285645-2.4794922l-0.9988403-5.9213862
			C51.0566139,1.8996336,48.8627052,0.0446532,46.2770729,0.0446532L46.2770729,0.0446532z"/>
	</g>
	<path id="XMLID_719_" class="st2" d="M42.68293,42.73666"/>
	<rect id="XMLID_656_" x="0.0088618" y="-0.0444565" class="st1" width="85.3481903" height="85.562233"/>
	<path id="XMLID_440_" class="st3" d="M42.6830711,56.3461075c-7.5092163,0-13.6093369-6.0998993-13.6093369-13.6091118
		c0-7.5089912,6.1001205-13.6100025,13.6093369-13.6100025c7.5089951,0,13.6091118,6.1010113,13.6091118,13.6100025
		C56.2921829,50.2462082,50.1920662,56.3461075,42.6830711,56.3461075L42.6830711,56.3461075z M42.6830711,56.3461075"/>
</g>
</svg>
