<?xml version="1.0" encoding="utf-8"?>
<!-- Generator: Adobe Illustrator 19.0.0, SVG Export Plug-In . SVG Version: 6.00 Build 0)  -->
<svg version="1.1" id="Layer_1" xmlns="http://www.w3.org/2000/svg" xmlns:xlink="http://www.w3.org/1999/xlink" x="0px" y="0px"
	 viewBox="0 0 85.36586 85.47332" style="enable-background:new 0 0 85.36586 85.47332;" xml:space="preserve">
<style type="text/css">
	.st0{fill:none;stroke:#EF3D3B;stroke-width:2;stroke-miterlimit:10;}
	.st1{fill:#EF3C3A;}
	.st2{fill:none;}
	.st3{fill:none;stroke:#EF3C3A;stroke-miterlimit:10;}
</style>
<symbol  id="_x2E__PREVIEW_Red" viewBox="-13.8292713 -26.2442398 27.6587257 52.4890251">
	<polyline id="XMLID_2236_" class="st0" points="13.1223478,-25.5371323 -12.4150581,0.0002725 13.1223478,25.5376778 	"/>
</symbol>
<path id="XMLID_2136_" class="st1" d="M42.6740685,42.8701439"/>
<rect id="XMLID_2129_" y="0.0890254" class="st2" width="85.3481903" height="85.562233"/>
<g id="BTN_Settings_2_">
	<g id="XMLID_1606_">
		<path id="XMLID_444_" class="st1" d="M46.2682228,1.0892088c2.0986938,0,3.8742676,1.5021973,4.2219849,3.57251
			l0.9988403,5.9212642l0.1034546,0.6132813l0.5959473,0.1783447c1.9787598,0.5921631,3.9464111,1.4016113,5.8483276,2.4057617
			l0.5450439,0.2878418l0.5020142-0.3575439l4.9630165-3.53479c0.7196045-0.5186768,1.5720215-0.7928467,2.4650269-0.7928467
			c1.1364136,0,2.2094116,0.4471436,3.0214233,1.2591553l5.3186646,5.3186035
			c1.4876709,1.4736328,1.6809692,3.7890625,0.4607544,5.5037842l-3.5316162,4.940918l-0.3592529,0.5026855l0.2886963,0.5461426
			c0.9439087,1.7857666,1.7301025,3.6843262,2.336731,5.6429462l0.1818848,0.5871582l0.6060791,0.1029053l5.994873,1.017334
			c2.0776367,0.3482666,3.5646362,2.1181641,3.5357666,4.222168v7.5089111c0,2.0994873-1.5020142,3.8751221-3.5704956,4.2219238
			l-5.9928589,0.9987793l-0.6123657,0.1021729l-0.1802368,0.5939941c-0.5647583,1.8620605-1.3509521,3.7597656-2.3366699,5.6403809
			L71.3880997,58.63694l0.3562622,0.5003662l3.53125,4.9587402c1.2156982,1.708374,1.0211182,4.0252686-0.4626465,5.5090332
			l-5.3152466,5.3153076c-0.8122559,0.8120117-1.8853149,1.2591553-3.0214844,1.2591553
			c-0.9034424,0-1.762207-0.274292-2.4859657-0.7952881l-4.9407349-3.5314941l-0.5028687-0.359375l-0.5463257,0.2890625
			c-1.7813721,0.942627-3.6799927,1.7287598-5.6432495,2.3366699l-0.5873413,0.1817627l-0.1027832,0.6062012l-1.0166626,5.994873
			c-0.3468628,2.069458-2.1224365,3.5714111-4.2219849,3.5714111h-7.5272827c-2.0988159,0-3.8744507-1.5021973-4.2219238-3.5705566
			l-0.9988403-5.9929199l-0.1011963-0.6070557l-0.5875854-0.1832275c-1.9317608-0.6021729-3.7717876-1.3588867-5.4690533-2.2491455
			l-0.5439453-0.2852783l-0.5004272,0.3562012l-5.0163574,3.5703125c-0.7200317,0.5183105-1.5726929,0.7922363-2.4658813,0.7922363
			c-1.1364136,0-2.2093506-0.4471436-3.0211792-1.2591553L10.65592,69.7264175
			c-1.487793-1.4737549-1.6810303-3.7893066-0.4623413-5.501709l3.5142212-4.8867188l0.3649902-0.5075684l-0.2964478-0.550415
			c-0.9683838-1.7982178-1.7657471-3.6894531-2.369873-5.6213379l-0.1827393-0.5843506l-0.6034546-0.1029053L4.553442,50.9362564
			c-2.0695803-0.3475342-3.5716555-2.1230469-3.5716555-4.2219238v-7.5091553c0-2.0992432,1.5021362-3.8752441,3.5722659-4.2229004
			l5.9213257-0.9979248l0.6126099-0.1032715l0.178833-0.5948486c0.5929565-1.9722919,1.3670044-3.8753681,2.3005981-5.6566181
			l0.2850342-0.5438232l-0.3560791-0.5002441l-3.5674438-5.0123291c-1.2160645-1.7076416-1.0213013-4.024292,0.461853-5.5074463
			l5.3410645-5.322876c0.7929077-0.8077393,1.8632813-1.2525635,3.0140381-1.2525635
			c0.9051514,0,1.7641602,0.2739258,2.4839478,0.7918701l4.9050293,3.5325928l0.5078735,0.3658447l0.5509033-0.296875
			c1.7966919-0.9682617,3.6878052-1.7655029,5.6209087-2.369751l0.5845337-0.1827393l0.1029053-0.6036377l1.0342407-6.066772
			c0.3474731-2.0695803,2.1234131-3.5716555,4.2227783-3.5716555H46.2682228 M46.2682228,0.0892089h-7.5092163
			c-2.586731,0-4.7806396,1.8549805-5.2089844,4.4061279l-1.0338135,6.0642085
			c-1.9979229,0.6245117-3.9428082,1.4447021-5.7969341,2.4438477l-4.9050293-3.5325928
			c-0.8918457-0.6418457-1.9622803-0.9804688-3.0683594-0.9804688c-1.4091187,0-2.7468262,0.5528564-3.7276611,1.552002
			l-5.333313,5.3150635c-1.8195801,1.8195801-2.069519,4.69104-0.5705566,6.7958984l3.5673218,5.012085
			c-0.9815063,1.8726807-1.7662964,3.8166504-2.3724976,5.8328876l-5.9213257,0.9979248
			c-2.5510867,0.4284668-4.4060669,2.6224365-4.4060669,5.2089844v7.5091553c0,2.5859375,1.8549805,4.7797852,4.4060669,5.2081299
			l6.064209,1.034668c0.6245117,1.9970703,1.4447632,3.9418945,2.4438477,5.7969971l-3.5142212,4.8867188
			c-1.4980469,2.1049805-1.2664185,4.9764404,0.5704956,6.7960205l5.3153687,5.3150635
			c0.9988403,0.9990234,2.3191528,1.552002,3.7282715,1.552002c1.1052246,0,2.1582031-0.338623,3.0500488-0.9805908
			l5.012085-3.5672607c1.8012695,0.9448242,3.6919556,1.7122803,5.6359234,2.3182373l0.9988403,5.9929199
			c0.4285278,2.5510254,2.6224365,4.4061279,5.208313,4.4061279h7.5272827c2.586731,0,4.7806396-1.8551025,5.208252-4.4061279
			l1.0162964-5.9929199c2.0161743-0.6242676,3.960144-1.4263916,5.8151855-2.407959l4.9407349,3.5314941
			c0.8917885,0.6418457,1.9622231,0.9816895,3.0674477,0.9816895c1.4093018,0,2.7294312-0.5532227,3.7285156-1.552002
			l5.3153076-5.3153076c1.8193359-1.8193359,2.0683594-4.6907959,0.5703125-6.7960205l-3.5314331-4.9589844
			c0.9814453-1.8724365,1.8019409-3.8164063,2.407959-5.8143311l5.9928589-0.9987793
			c2.5510864-0.4277344,4.4061279-2.621582,4.4061279-5.208374v-7.5089111
			c0.0356445-2.586792-1.8193359-4.7807617-4.3704224-5.208374l-5.9929199-1.0170898
			c-0.6242676-2.0153828-1.4273682-3.9592304-2.4078979-5.814333l3.5316162-4.940918
			c1.4978638-2.1049805,1.2661743-4.9764404-0.5705566-6.7957764l-5.3153076-5.3153076
			c-0.9988403-0.9987793-2.3192139-1.552002-3.7285156-1.552002c-1.1051636,0-2.15802,0.3388672-3.0498085,0.9816895
			l-4.958374,3.5313721c-1.9263306-1.0170898-3.9416504-1.8549805-6.0285645-2.4794922L51.4762917,4.495337
			C51.0477638,1.9441893,48.8538551,0.0892089,46.2682228,0.0892089L46.2682228,0.0892089z"/>
	</g>
	<path id="XMLID_1605_" class="st1" d="M42.6740685,42.7812767"/>
	<rect id="XMLID_1604_" y="0.0001598" class="st2" width="85.3481903" height="85.562233"/>
	<path id="XMLID_1588_" class="st3" d="M42.6742096,56.3907242c-7.5092163,0-13.6093369-6.0998993-13.6093369-13.6091118
		c0-7.5089912,6.1001205-13.6100025,13.6093369-13.6100025c7.5089951,0,13.6091118,6.1010113,13.6091118,13.6100025
		C56.2833214,50.2908249,50.1832047,56.3907242,42.6742096,56.3907242L42.6742096,56.3907242z M42.6742096,56.3907242"/>
</g>
</svg>
