<?xml version="1.0" encoding="utf-8"?>
<!-- Generator: Adobe Illustrator 19.0.0, SVG Export Plug-In . SVG Version: 6.00 Build 0)  -->
<svg version="1.1" id="Layer_1" xmlns="http://www.w3.org/2000/svg" xmlns:xlink="http://www.w3.org/1999/xlink" x="0px" y="0px"
	 viewBox="0 0 212.5 307.2" style="enable-background:new 0 0 212.5 307.2;" xml:space="preserve">
<style type="text/css">
	.st0{fill:none;stroke:#EF3C3A;stroke-width:3;stroke-miterlimit:10;}
</style>
<g id="XMLID_554_">
	<path id="XMLID_614_" class="st0" d="M189.9,130.7H45.7V94.4c0-33.5,27.3-60.8,60.8-60.8c29.8,0,55,21.3,60,50.7
		c1.5,8.7,9.7,14.6,18.4,13.1c8.7-1.5,14.6-9.7,13.1-18.4c-3.6-21.4-14.7-41-31.3-55.1C150,9.5,128.6,1.6,106.5,1.6
		c-51.2,0-92.8,41.6-92.8,92.8v37.8c-5.8,2.2-11.5,7.2-11.5,17v52c0,57.5,46.8,104.3,104.3,104.3c57.5,0,104.3-46.8,104.3-104.3v-52
		C210.8,134.6,197.1,130.7,189.9,130.7L189.9,130.7z M126.3,244.2c0.3,1.7-0.8,3.1-2.6,3.1h-34c-1.8,0-2.9-1.4-2.6-3.1l5.4-28.9
		c-4.2-3.8-6.8-9.3-6.8-15.3c0-11.5,9.3-20.7,20.7-20.7c11.5,0,20.8,9.3,20.8,20.7c0,5.9-2.5,11.2-6.4,15L126.3,244.2z M126.3,244.2
		"/>
</g>
</svg>
