<?xml version="1.0" encoding="utf-8"?>
<!-- Generator: Adobe Illustrator 19.0.0, SVG Export Plug-In . SVG Version: 6.00 Build 0)  -->
<svg version="1.1" id="Layer_1" xmlns="http://www.w3.org/2000/svg" xmlns:xlink="http://www.w3.org/1999/xlink" x="0px" y="0px"
	 viewBox="0 0 62.2416496 81.9676514" style="enable-background:new 0 0 62.2416496 81.9676514;" xml:space="preserve">
<style type="text/css">
	.st0{fill:none;stroke:#EF3D3B;stroke-width:2;stroke-miterlimit:10;}
	.st1{fill:#EF3C3A;}
</style>
<symbol  id="_x2E__PREVIEW_Red" viewBox="-13.8292713 -26.2442398 27.6587257 52.4890251">
	<polyline id="XMLID_2236_" class="st0" points="13.1223478,-25.5371323 -12.4150581,0.0002725 13.1223478,25.5376778 	"/>
</symbol>
<g id="BTN_Profile_6_">
	<g id="XMLID_3028_">
		<path id="XMLID_565_" class="st1" d="M31.1208153,0.999331c9.1487427,0,16.5917969,7.4429936,16.5917969,16.5917969
			S40.269558,34.1829262,31.1208153,34.1829262s-16.5917969-7.4429951-16.5917969-16.5917988
			S21.9720726,0.999331,31.1208153,0.999331 M31.1208153-0.000669c-9.7156982,0-17.5917969,7.8760986-17.5917969,17.5917969
			s7.8760977,17.5917988,17.5917969,17.5917988s17.5917969-7.8761005,17.5917969-17.5917988
			S40.8365135-0.000669,31.1208153-0.000669L31.1208153-0.000669z"/>
	</g>
	<g id="XMLID_3027_">
		<path id="XMLID_561_" class="st1" d="M31.1208153,38.956852c16.6087036,0,30.1208496,13.512207,30.1208496,30.1208458
			c0,7.8062744-15.15271,11.890625-30.1208496,11.890625c-14.9680786,0-30.1207886-4.0843506-30.1207886-11.890625
			C1.0000273,52.469059,14.5121737,38.956852,31.1208153,38.956852 M31.1208153,37.956852
			c-17.187561,0-31.1207886,13.9332275-31.1207886,31.1208458c0,8.59375,15.5604248,12.890625,31.1207886,12.890625
			c15.5604248,0,31.1208496-4.296875,31.1208496-12.890625C62.2416649,51.8900795,48.3083763,37.956852,31.1208153,37.956852
			L31.1208153,37.956852z"/>
	</g>
</g>
</svg>
