<?xml version="1.0" encoding="utf-8"?>
<!-- Generator: Adobe Illustrator 19.0.0, SVG Export Plug-In . SVG Version: 6.00 Build 0)  -->
<svg version="1.1" id="Layer_1" xmlns="http://www.w3.org/2000/svg" xmlns:xlink="http://www.w3.org/1999/xlink" x="0px" y="0px"
	 viewBox="0 0 37.1336823 35.4391937" style="enable-background:new 0 0 37.1336823 35.4391937;" xml:space="preserve">
<style type="text/css">
	.st0{fill:none;stroke:#EF3D3B;stroke-width:2;stroke-miterlimit:10;}
	.st1{fill:#FCD900;}
</style>
<symbol  id="_x2E__PREVIEW_Red" viewBox="-13.8292713 -26.2442398 27.6587257 52.4890251">
	<polyline id="XMLID_2236_" class="st0" points="13.1223478,-25.5371323 -12.4150581,0.0002725 13.1223478,25.5376778 	"/>
</symbol>
<symbol  id="Star_Small__x28_Active_x29_" viewBox="-46.3577232 69.9377899 19.7740593 18.871727">
	<path id="XMLID_608_" class="st1" d="M-30.7940407,69.9377899c-0.1518574,0-0.2965508,0.0476761-0.4201813,0.1376343
		l-5.2549706,3.8128357l-5.2602501-3.8128357c-0.2489319-0.1799774-0.5789871-0.1799774-0.827919,0
		c-0.2488251,0.1800842-0.3512306,0.4960861-0.254158,0.7855835l2.0052948,6.1781311l-5.2603569,3.8269958
		c-0.2488251,0.1800308-0.3512306,0.4959793-0.2559357,0.7872467c0.0970726,0.2894974,0.3654518,0.4889755,0.6760635,0.4889755
		h6.4959602l2.0070152,6.1781845c0.0953522,0.289444,0.3653984,0.4889755,0.6742859,0.4889755
		c0.3036079,0,0.5737114-0.1995316,0.6690598-0.4889755l2.0069618-6.1781845h6.5030193
		c0.3088875,0,0.578989-0.1994781,0.674284-0.4889755c0.0900154-0.2912674-0.0123348-0.6072159-0.2612133-0.7872467
		l-5.2620792-3.8269958l2.0140724-6.1781311c0.0900154-0.2894974-0.0141144-0.6054993-0.2612133-0.7855835
		C-30.5045452,69.985466-30.649292,69.9377899-30.7940407,69.9377899L-30.7940407,69.9377899z"/>
</symbol>
<use xlink:href="#Star_Small__x28_Active_x29_"  width="19.7740593" height="18.871727" id="XMLID_697_" x="-46.3577232" y="69.9377899" transform="matrix(1.8778988 0 0 -1.8778988 87.0551071 166.7752838)" style="overflow:visible;"/>
</svg>
