<?xml version="1.0" encoding="utf-8"?>
<!-- Generator: Adobe Illustrator 19.0.0, SVG Export Plug-In . SVG Version: 6.00 Build 0)  -->
<svg version="1.1" id="Layer_1" xmlns="http://www.w3.org/2000/svg" xmlns:xlink="http://www.w3.org/1999/xlink" x="0px" y="0px"
	 viewBox="0 0 120.3 107.5" style="enable-background:new 0 0 120.3 107.5;" xml:space="preserve">
<style type="text/css">
	.st0{fill:none;stroke:#EC2127;stroke-width:2;stroke-miterlimit:10;}
</style>
<path id="XMLID_1708_" class="st0" d="M117.3,36.3L83.9,3c-0.8-0.8-1.8-1.2-2.9-1.2c-1.1,0-2.1,0.4-2.9,1.2
	c-0.8,0.8-1.2,1.8-1.2,2.9v16.7H62.2c-31,0-50,8.8-57,26.3c-2.3,5.8-3.5,13.1-3.5,21.7c0,7.2,2.8,17,8.3,29.4
	c0.1,0.3,0.4,0.8,0.7,1.6c0.3,0.7,0.6,1.4,0.9,2c0.3,0.6,0.5,1,0.9,1.4c0.5,0.7,1.1,1.1,1.8,1.1c0.7,0,1.2-0.2,1.5-0.7
	c0.4-0.4,0.6-1,0.6-1.6c0-0.4-0.1-1-0.2-1.7c-0.1-0.8-0.2-1.3-0.2-1.5c-0.2-3-0.3-5.6-0.3-8c0-4.4,0.4-8.3,1.1-11.8
	c0.8-3.5,1.8-6.5,3.2-9c1.3-2.5,3.1-4.7,5.2-6.6c2.1-1.8,4.4-3.4,6.9-4.5c2.5-1.2,5.3-2.1,8.7-2.8c3.3-0.7,6.7-1.1,10-1.4
	c3.4-0.3,7.2-0.4,11.4-0.4h14.6v16.7c0,1.1,0.4,2.1,1.2,2.9c0.8,0.8,1.8,1.2,2.9,1.2c1.1,0,2.1-0.4,2.9-1.2l33.4-33.4
	c0.8-0.8,1.2-1.8,1.2-2.9C118.6,38.1,118.1,37.2,117.3,36.3L117.3,36.3z"/>
</svg>
