<?xml version="1.0" encoding="utf-8"?>
<!-- Generator: Adobe Illustrator 19.0.0, SVG Export Plug-In . SVG Version: 6.00 Build 0)  -->
<svg version="1.1" id="Layer_1" xmlns="http://www.w3.org/2000/svg" xmlns:xlink="http://www.w3.org/1999/xlink" x="0px" y="0px"
	 viewBox="0 0 141.5832672 141.5832672" style="enable-background:new 0 0 141.5832672 141.5832672;" xml:space="preserve">
<style type="text/css">
	.st0{fill:none;stroke:#EF3D3B;stroke-width:2;stroke-miterlimit:10;}
	.st1{fill:none;stroke:#FFFFFF;stroke-width:1.9055808;stroke-miterlimit:10;}
	.st2{fill:#FFFFFF;fill-opacity:0.25;}
	.st3{fill:#FFFFFF;}
</style>
<symbol  id="_x2E__PREVIEW_Red" viewBox="-13.8292713 -26.2442398 27.6587257 52.4890251">
	<polyline id="XMLID_2236_" class="st0" points="13.1223478,-25.5371323 -12.4150581,0.0002725 13.1223478,25.5376778 	"/>
</symbol>
<symbol  id="Video_Play_Small" viewBox="-85.0449905 -85.0454178 170.0901642 170.0901642">
	<g id="XMLID_2017_">
		<path id="XMLID_2234_" class="st1" d="M84.0923767-0.0003407c0-46.4428902-37.6493988-84.0922852-84.0922852-84.0922852
			S-84.0922012-46.4432297-84.0922012-0.0003407s37.6494026,84.0922928,84.0922928,84.0922928
			S84.0923767,46.4425468,84.0923767-0.0003407z"/>
		<path id="XMLID_609_" class="st2" d="M84.0923767,0.8275743c0-46.4428902-37.6493988-84.0922928-84.0922852-84.0922928
			S-84.0922012-45.6153145-84.0922012,0.8275743s37.6494026,84.0922852,84.0922928,84.0922852
			S84.0923767,47.270462,84.0923767,0.8275743z"/>
		<polygon id="XMLID_2018_" class="st3" points="-14.9647655,23.5824642 29.7743893,-0.0003407 -14.9647655,-23.5831451 		"/>
	</g>
</symbol>
<use xlink:href="#Video_Play_Small"  width="170.0901642" height="170.0901642" id="XMLID_1276_" x="-85.0449905" y="-85.0454178" transform="matrix(0.8324013 0 0 -0.8324013 70.7915573 70.7913513)" style="overflow:visible;"/>
</svg>
