<?xml version="1.0" encoding="utf-8"?>
<!-- Generator: Adobe Illustrator 21.0.2, SVG Export Plug-In . SVG Version: 6.00 Build 0)  -->
<svg version="1.1" id="Layer_1" xmlns="http://www.w3.org/2000/svg" xmlns:xlink="http://www.w3.org/1999/xlink" x="0px" y="0px"
	 viewBox="0 0 369.488 266.557" style="enable-background:new 0 0 369.488 266.557;" xml:space="preserve">
<style type="text/css">
	.st0{fill:#EF3B39;}
</style>
<path id="XMLID_358_" class="st0" d="M126.522,252.712c3.713,0.506,8.272,0.087,13.678-1.266
	c10.805-2.535,20.601-8.361,29.384-17.479c11.312-11.818,25.16-33.943,41.542-66.366c4.219-8.272,19.164-40.022,44.835-95.242
	c17.055-36.642,36.729-59.526,59.02-68.645c9.119-3.713,18.491-4.643,28.117-2.787c7.935,1.354,14.944,4.223,21.024,8.612
	c4.725,3.717,6.333,9.289,4.813,16.718c-0.847,3.717-2.197,7.093-4.053,10.132c-0.17-3.04-0.759-6.079-1.773-9.119
	c-2.367-6.079-5.996-9.032-10.892-8.866c-8.953,0.506-18.832,4.73-29.636,12.666c-11.145,8.446-20.605,18.997-28.371,31.663
	c-11.315,18.072-26.767,45.341-46.354,81.817c-4.56,8.276-11.486,21.366-20.771,39.263c-7.262,13.511-37.01,68.922-88.403,82.322
	c-7.98,2.081-16.212-4.052-24.317-7.598c-16.381-7.092-24.404-15.535-24.064-25.331c0.166-7.599,4.389-19.588,12.665-35.969
	c5.066-10.132,13.426-25.244,25.077-45.341c11.312-19.081,18.404-31.663,21.278-37.742c4.895-10.132,5.066-14.521,0.506-13.172
	c-21.448,6.079-47.621,18.915-78.525,38.502c-18.237,11.486-32.169,22.544-41.795,33.182
	c-11.653,13.005-16.382,24.913-14.185,35.716c2.699,15.033,8.105,22.798,16.211,23.304c4.053,0.171,7.853-1.095,11.399-3.799
	c-1.86,3.38-4.306,6.079-7.346,8.105c-6.25,4.053-12.835,2.786-19.758-3.799c-9.289-8.949-14.526-19.587-15.705-31.916
	c-1.013-14.522,4.219-27.864,15.705-40.022c13.508-14.351,44.494-31.323,92.962-50.914c21.614-8.613,40.105-14.605,55.474-17.985
	c17.39-4.053,28.283-4.136,32.676-0.254C153.202,183.647,129.728,237.513,126.522,252.712z"/>
</svg>
